<?xml version="1.0" encoding="UTF-8"?>
<svg id="Layer_2" data-name="Layer 2" xmlns="http://www.w3.org/2000/svg" viewBox="0 0 667.81 255.05">
  <defs>
    <style>
      .cls-1 {
        fill: #2ba9ab;
      }

      .cls-2 {
        fill: #304269;
      }

      .cls-3 {
        opacity: .35;
      }
    </style>
  </defs>
  <g id="Layer_1-2" data-name="Layer 1">
    <g>
      <g>
        <path class="cls-2" d="M150.03,4.27c-8.64-2.85-16.47-4.27-23.51-4.27-11.07,0-19.61,2.46-25.66,7.38-6.05,4.93-9.59,11.6-10.62,20.05-.51,3.34-.83,13.51-.95,30.51-.02,2.68-2.11,4.87-4.73,5.07l-7.27,31.17c.91.83,2.11,1.34,3.44,1.34h3.43c2.82,0,5.11,2.29,5.11,5.1v110.33c0,2.82,2.29,5.11,5.11,5.11h28.17c2.82,0,5.11-2.29,5.11-5.11v-110.33c0-2.81,2.29-5.1,5.11-5.1h14.11c2.82,0,5.11-2.3,5.11-5.11v-22.27c0-2.82-2.29-5.11-5.11-5.11h-14.07c-2.85,0-5.13-2.32-5.11-5.15l.11-13.98c0-4.41.75-7.31,2.24-8.73,2.07-1.88,5.34-2.81,9.84-2.81,2.14,0,4.64.3,7.49.86,3.17.64,6.16-1.76,6.16-5V9.13c0-2.2-1.41-4.17-3.5-4.86Z"/>
        <path class="cls-1" d="M298.25,63.02h-28.18c-2.82,0-5.11,2.29-5.11,5.11v.43c0,4.24-4.85,6.63-8.2,4.06-4.49-3.43-9.2-6.21-14.14-8.34-8.05-3.47-16.66-5.21-25.84-5.21-19.95,0-36.9,7.55-50.86,22.65-13.95,15.09-20.93,34.45-20.93,58.09s7.21,41.84,21.64,57.18c14.42,15.32,31.51,23,51.29,23,8.8,0,16.97-1.57,24.52-4.71,4.81-2.01,9.6-4.83,14.4-8.45.94-.71,1.98-1.02,3-1.02,2.65,0,5.14,2.11,5.14,5.13,0,2.82,2.29,5.11,5.11,5.11h28.18c2.81,0,5.11-2.29,5.11-5.11V68.13c0-2.82-2.3-5.11-5.11-5.11ZM254.74,172.24c-7.95,8.39-17.95,12.58-30.01,12.58s-21.51-4.27-29.51-12.8c-7.99-8.54-11.98-19.41-11.98-32.63s3.93-23.89,11.78-32.28c7.84-8.4,17.71-12.59,29.57-12.59s22.2,4.13,30.14,12.38c7.94,8.25,11.91,19.03,11.91,32.35s-3.97,24.6-11.91,32.99Z"/>
        <path class="cls-1" d="M465.95,63.02h-28.17c-2.82,0-5.11,2.29-5.11,5.11v.43c0,4.24-4.85,6.63-8.21,4.06-4.48-3.43-9.19-6.21-14.13-8.34-8.05-3.47-16.67-5.21-25.84-5.21-19.95,0-36.91,7.55-50.86,22.65-13.95,15.09-20.93,34.45-20.93,58.09s7.21,41.84,21.64,57.18c14.42,15.32,31.51,23,51.28,23,8.8,0,16.98-1.57,24.52-4.71,4.81-2.01,9.61-4.83,14.4-8.45.94-.71,1.99-1.02,3.01-1.02,2.65,0,5.14,2.11,5.14,5.13,0,2.82,2.29,5.11,5.11,5.11h28.17c2.82,0,5.11-2.29,5.11-5.11V68.13c0-2.82-2.29-5.11-5.11-5.11ZM422.43,172.24c-7.94,8.39-17.94,12.58-30,12.58s-21.52-4.27-29.51-12.8c-7.99-8.54-11.98-19.41-11.98-32.63s3.92-23.89,11.77-32.28c7.85-8.4,17.71-12.59,29.58-12.59s22.2,4.13,30.13,12.38c7.95,8.25,11.92,19.03,11.92,32.35s-3.97,24.6-11.92,32.99Z"/>
        <path class="cls-2" d="M624.85,81.72c-13.98-15.1-30.95-22.65-50.93-22.65-9.19,0-17.81,1.74-25.87,5.21-5,2.14-9.76,4.95-14.32,8.42-3.35,2.56-8.19.15-8.19-4.07V9.04c0-2.81-2.29-5.11-5.1-5.11h-27.9c-2.82,0-5.11,2.3-5.11,5.11v201.9c0,2.82,2.29,5.11,5.11,5.11h27.9c2.81,0,5.1-2.29,5.1-5.11h0c0-4.21,4.81-6.65,8.15-4.12,4.82,3.64,9.65,6.45,14.5,8.46,7.6,3.14,15.8,4.71,24.62,4.71,19.78,0,36.9-7.67,51.34-23,14.44-15.34,21.66-34.39,21.66-57.18s-6.99-43-20.95-58.09ZM595.51,172.03c-8.02,8.53-17.89,12.8-29.61,12.8s-22.13-4.19-30.1-12.58c-7.98-8.39-11.96-19.39-11.96-32.99s3.98-24.09,11.96-32.35c7.97-8.25,18-12.38,30.1-12.38s21.94,4.19,29.82,12.59c7.87,8.39,11.81,19.15,11.81,32.28s-4.01,24.09-12.03,32.63Z"/>
      </g>
      <g>
        <path class="cls-2" d="M78.48,83.5c-1.58,5.9-3.49,13.03-5.8,21.69-.41,1.54-.83,3.14-1.28,4.79l-.15.58c-1.3,4.89-2.91,10.98-6.86,16.23-4.64,6.17-11.48,9.95-20.94,11.57-1.65.28-3.32.48-4.97.61-1.44.11-2.88.17-4.32.18.28,1.04.52,2.11.7,3.19,1.36,7.93.21,17-3.43,26.6-2.37,6.26-5.5,12.24-8.53,18.02-1.82,3.48-3.71,7.07-5.4,10.67-5.44,11.63-7.51,21.07-6.55,29.71,1.2,10.69,8.12,19.92,16.81,22.45,1.52.44,3.04.67,4.55.74,5.89.26,11.66-2.15,16.3-5.82,2.99-2.35,5.51-5.23,7.33-8.25.04-.06.42-.07.46-.13l-.27-.03h.01l.51.3h0s2.4,1.41,2.4,1.41c-2.07,3.51-4.81,6.66-7.99,9.22-1.81,1.47-3.76,2.73-5.82,3.76-4.43,2.23-8.98,3.24-13.37,2.99h-.02c-.55-.04-1.11-.08-1.65-.16-1.15-.15-2.29-.39-3.39-.71-11.74-3.41-18.15-15.21-19.3-25.39-1.04-9.31,1.14-19.34,6.86-31.57,1.72-3.67,3.62-7.29,5.45-10.8,2.98-5.7,6.07-11.58,8.37-17.64,2.86-7.58,5.51-18.64,2.26-28.93-3.3-.87-6.56-1.95-9.7-3.39-8.73-4.01-14.37-9.42-17.26-16.58-2.47-6.08-2.47-12.37-2.46-17.43v-5.14c-.01-9.15-.02-16.66-.03-22.86-.06-28.97-.07-29.53,1.77-33.43,3.04-6.44,10.11-9.13,15.71-9.5,6.18-.4,12.29,1.41,17.67,3.01l-.99,3.32c-5.35-1.59-10.91-3.25-16.46-2.88-5.81.38-10.83,3.33-12.81,7.51-1.48,3.14-1.51,3.73-1.44,31.95.02,6.16.03,13.57.03,22.61v5.41c0,10.13-.02,22.74,17.71,30.86.03.02.06.03.09.05,6.4,2.91,13.54,3.85,20.47,2.67.04,0,.07-.01.11-.01,19.22-3.3,22.45-15.49,25.04-25.28l.16-.59c.45-1.72.9-3.38,1.33-5,2.29-8.56,4.17-15.63,5.74-21.48,7.3-27.25,7.43-27.84,6.81-31.24-.82-4.55-4.93-8.7-10.44-10.56-5.27-1.77-11.06-1.6-16.65-1.44l-.09-3.46c5.62-.17,11.99-.36,17.85,1.62,5.32,1.8,11.47,6.22,12.75,13.22.77,4.24.62,4.77-6.88,32.76Z"/>
        <g>
          <path class="cls-1" d="M42.87,134.95c19.22-3.3,22.45-15.49,25.04-25.28l.16-.59c2.89-10.86,5.21-19.52,7.07-26.48,7.31-27.25,7.43-27.83,6.81-31.24-.83-4.55-4.93-8.69-10.45-10.55-1.42-.48-2.88-.82-4.36-1.05,2.12.22,4.2.61,6.21,1.29,5.52,1.86,9.62,6,10.45,10.55.62,3.41.5,4-6.81,31.24-1.86,6.96-4.19,15.62-7.07,26.48l-.16.59c-2.59,9.79-5.82,21.98-25.04,25.28-.04,0-.07.01-.1.02-3.77.64-7.61.66-11.36.06,3.15.33,6.35.23,9.51-.3.03,0,.07-.01.1-.02Z"/>
          <path class="cls-1" d="M2.77,39.94c3.03-6.43,10.11-9.12,15.72-9.49,2.35-.15,4.68.01,6.98.37-1.7-.18-3.41-.24-5.13-.13-5.61.37-12.68,3.06-15.72,9.49-1.84,3.91-1.84,4.46-1.77,33.43.02,7.2.04,16.16.04,27.4v.6c0,5.06-.01,11.35,2.45,17.44,2.9,7.16,8.54,12.57,17.27,16.58,1.33.61,2.68,1.16,4.04,1.65-2-.48-3.98-1.01-5.89-1.89-8.72-4-14.37-9.42-17.27-16.58-2.47-6.09-2.46-12.38-2.46-17.44v-.6c0-11.24-.02-20.2-.03-27.4-.07-28.97-.07-29.52,1.77-33.43Z"/>
        </g>
        <path class="cls-2" d="M49.33,38.08c.39,7.81,5.98,8.28,7.68,5.82.59-.85.82-2.11,1.81-2.43.94-.3,3,.91,3.65-1.54.01-.06.03-.11.04-.17.13-.65,0-1.26.02-1.92.01-.62.92-2.71-.82-4.29-2.59-2.36-4.52.62-5.64.22-.65-.24-1.49-2.9-4.14-1.81-.35.14-.65.32-.91.54-1.51,1.21-1.8,3.47-1.69,5.57Z"/>
        <path class="cls-2" d="M27.65,35.39c0,2.53,2.3,1.89,3.13,2.42.87.56.77,1.84,1.12,2.81.76,2.1,4.02,3.18,6.61.51.89-.91,1.7-2.26,2.31-4.16.75-2.35,1.03-5.06-.95-6.57-2.28-1.73-3.77.63-4.46.69-.89.08-1.73-1.81-3.42-2.06-.56-.09-1.21,0-1.98.41-2.08,1.07-1.74,3.33-1.89,3.93-.17.69-.48,1.3-.48,2.03Z"/>
        <path class="cls-1" d="M73.42,106.46c-4.3,16.22-8.32,28.06-26.73,32.31h-.06s-.15.04-.15.04l-.13.03c-.87.2-1.78.38-2.72.54-6.4,1.09-8.25.18-7.9,1.95,4.11,21.23-9.85,40.84-17.27,56.73-11.26,24.02-6.4,40.57,3.4,47.6,0,0,.01,0,.01.01.14.09.27.2.41.28.23.17.48.33.73.48.15.07.28.17.43.25.25.15.52.29.78.43.1.05.2.11.31.16.03.01.06.03.09.04.13.07.26.14.4.2.05.02.11.05.16.07.17.07.33.15.5.22.19.07.38.16.57.23.19.07.39.15.58.22,0,0,0,0,.01,0,.01,0,.03,0,.04.01.33.11.67.23.99.32.02.01.03.01.04.01.05.02.09.03.14.04.05.01.1.03.14.04.02,0,.03.01.04.01.12.04.24.07.36.11h.03c.19.05.38.09.58.14.15.04.3.07.44.09.02.01.04.01.06.01.12.03.23.05.35.07,0,0,0,0,0,0,.33.06.65.11.98.16.4.05.79.09,1.19.12.06.01.13.01.19.01.41.03.81.04,1.22.04.2,0,.4,0,.59-.01.17,0,.34-.01.51-.02.37-.02.74-.04,1.1-.08.12-.01.23-.02.34-.03.11-.01.21-.03.32-.04,1.01-.14,2.02-.35,3.02-.63.16-.05.32-.09.47-.14.06-.02.12-.04.17-.06,1.19-.37,2.36-.85,3.52-1.44.31-.15.59-.31.89-.47.14-.07.27-.16.41-.24.2-.12.39-.23.59-.36.26-.16.52-.32.77-.5.31-.2.6-.41.9-.64.19-.14.39-.28.58-.44.08-.07.17-.14.25-.21.12-.08.22-.18.33-.26.15-.12.31-.25.46-.39.65-.58,1.29-1.19,1.92-1.85.11-.09.2-.2.28-.31.28-.32.57-.63.85-.96.27-.34.55-.67.82-1.02.21-.26.42-.54.61-.82.86-.72,1.73-1.4,2.6-2.07.04-.06.42-.07.46-.13l-.27-.03h.01l.51.3h0s2.4,1.41,2.4,1.41l.9.53c-2.11,3.59-4.91,6.82-8.16,9.44-3.33,2.7-7.14,4.76-11.12,5.94-.22.07-.43.13-.65.19-.43.12-.86.22-1.31.33-.22.04-.43.09-.65.14h-.01c-.22.04-.44.08-.65.12-.44.07-.87.14-1.32.19h-.01c-.22.03-.44.05-.66.07-.22.02-.44.03-.66.05-.15,0-.28.01-.42.02-.17.01-.33.01-.5.02h-.42c-.41.01-.82,0-1.23-.01-.08-.01-.17-.01-.25-.01-.13-.01-.24-.01-.37-.02-.11-.01-.21-.02-.32-.03-.08,0-.18-.01-.26-.02-.11-.01-.2-.02-.31-.03-.2-.01-.4-.04-.6-.06-7.05-.93-12.86-4.84-16.97-10.24-.36-.47-.71-.96-1.04-1.47-.22-.34-.44-.67-.65-1.01-.11-.17-.21-.35-.32-.52-.16-.26-.31-.53-.45-.78-.3-.54-.58-1.08-.84-1.61-.13-.28-.26-.56-.39-.83-1.51-3.32-2.51-6.91-2.91-10.55-3.66-32.41,31.38-57.6,23.29-87.65-.14-.5-.52-.67-1.39-.94-.16-.04-.34-.09-.54-.15-.06-.02-.14-.04-.2-.05-.37-.11-.78-.22-1.26-.37-.11-.03-.22-.07-.33-.11-.25-.07-.52-.17-.8-.26-.15-.04-.28-.09-.44-.15-.12-.04-.24-.08-.37-.13-.08-.03-.17-.06-.26-.09-1.08-.4-2.35-.92-3.87-1.61-1.03-.47-2.01-.96-2.95-1.45-.26-.15-.53-.28-.78-.43h-.01c-.38-.22-.76-.43-1.14-.65-.47-.28-.94-.57-1.39-.86h-.01c-1.8-1.17-3.37-2.39-4.74-3.69-.35-.32-.67-.64-.99-.97-.33-.34-.63-.67-.94-1.01-.3-.34-.58-.67-.85-1.02-.07-.09-.14-.19-.21-.27-.05-.06-.09-.12-.14-.18C.59,118.37-.02,109.11,0,97.29c-.01-.67.43-.94,1.03-1.05.47-.09,1.06-.09,1.62-.15.08-.01.17-.01.24-.02.69-.06,1.2-.12,1.59-.09h.01c1.43.06,1.01,1.02,1.03,5.41-.01,11.15.99,22.96,17.19,29.96,6.22,2.84,13.15,3.73,19.87,2.59,18.54-3.59,21.09-12.51,25.54-29.15.15-.55.47-.75.91-.75.12,0,.23.02.36.04.53.08,1.16.36,1.76.57.53.19,1.09.34,1.53.54.56.26.92.62.74,1.28Z"/>
        <g>
          <path class="cls-1" d="M49.3,135.55c12.14-3.78,16.48-11.43,20.25-24.23.01-.04.03-.08.05-.12h0c.18-.36.6-.5.96-.33.32.16.47.53.36.86-3.81,12.94-8.49,21.21-21.15,25.17-.11.04-.23.06-.35.04-.18-.02-.34-.11-.46-.26-.25-.31-.2-.76.11-1.01.07-.06.15-.1.24-.13Z"/>
          <path class="cls-1" d="M16.25,197.04c1.45-3.1,3.11-6.29,4.87-9.65l.14-.27c2.65-5.07,5.4-10.31,7.67-15.77.15-.37.57-.54.94-.39.37.15.54.57.39.94-2.3,5.52-5.06,10.79-7.72,15.89l-.14.27c-1.75,3.35-3.41,6.52-4.85,9.6-5.33,11.37-7.44,21.71-6.28,30.73.03.22.06.44.09.65.06.39-.21.76-.6.81-.07,0-.13.01-.2,0-.31-.04-.57-.28-.62-.61-.03-.22-.07-.45-.09-.68-1.19-9.29.96-19.89,6.4-31.52Z"/>
        </g>
        <path class="cls-1" d="M21.32,249.91s0,0,0,0c0,0,.02.01.03.02,0,0-.01-.01-.02-.01Z"/>
        <g>
          <path class="cls-1" d="M56.67,236.59h0c-2.16,3.69-4.69,6.59-7.4,8.78-5.33,4.32-11.41,5.89-16.94,5.15-3.92-.51-7.56-2.18-10.46-4.85.14.09.27.19.41.28.23.17.48.33.73.48.14.08.28.18.43.25,1.6.96,3.34,1.68,5.15,2.13.8.21,1.62.37,2.46.47.4.05.79.09,1.19.12.06.01.13.01.19.01.41.03.81.04,1.22.04.2,0,.4,0,.59-.01.17,0,.34-.01.51-.02.37-.02.74-.04,1.1-.08.22-.02.43-.05.65-.07,1.01-.14,2.02-.35,3.02-.63.21-.06.43-.13.64-.2,1.19-.37,2.36-.85,3.52-1.44.3-.15.59-.31.89-.47.14-.07.27-.16.41-.24.2-.11.4-.23.59-.36.26-.16.52-.32.77-.5.31-.2.6-.41.9-.64.19-.14.39-.28.58-.44.08-.06.17-.13.26-.2.11-.08.21-.17.32-.27.15-.12.31-.25.46-.39.65-.57,1.31-1.19,1.92-1.85.11-.09.2-.2.28-.31.3-.31.58-.63.85-.96.28-.34.56-.67.82-1.02.21-.26.42-.54.61-.82.86-.72,1.73-1.4,2.6-2.07.04-.06.58-.11.62-.17h-.43s.01.01.01.01l.51.3Z"/>
          <path class="cls-1" d="M0,97.29c-.01,11.81.59,21.08,6.17,28.5.05.06.09.12.14.18.07.09.14.18.21.27,2.2,2.77,5.11,5.28,8.93,7.56.37.22.75.44,1.14.65,0,0,0,0,0,0,.26.14.52.28.78.42.93.5,1.92.98,2.95,1.46,1.51.69,2.79,1.21,3.87,1.61.09.03.18.06.27.1.12.05.25.09.37.13.15.05.3.1.44.15.29.1.55.18.8.26.11.03.22.07.32.1.49.15.9.27,1.27.37.07.02.14.04.2.06.2.06.38.11.54.15.87.26,1.25.44,1.38.94,8.09,30.04-26.94,55.23-23.29,87.64.41,3.64,1.4,7.23,2.92,10.55.13.28.25.55.39.83.26.55.55,1.08.84,1.61.15.26.3.52.45.78.1.17.21.34.31.52.21.34.43.68.65,1.01.34.5.69.99,1.05,1.47,4.11,5.4,9.91,9.32,16.96,10.24.2.03.4.05.6.07.1.01.21.02.31.03.09.01.18.02.27.02.11.01.21.02.31.02.13.01.25.02.38.02.08,0,.16,0,.25,0,.41.02.82.02,1.23.02.14,0,.28,0,.42,0,.17,0,.33-.01.49-.02.14,0,.28-.02.42-.02.22-.01.44-.03.67-.05.22-.02.44-.04.67-.07,0,0,.01,0,.01,0,.44-.05.88-.11,1.31-.19.22-.04.43-.08.65-.12,0,0,0,0,.01,0,.22-.04.43-.09.65-.13.44-.1.88-.21,1.31-.32.22-.06.44-.12.65-.19-3.11.65-6.11.53-8.79.06-5.64-1-9.84-3.6-10.5-4.02-.02-.01-.04-.03-.06-.04-.01,0-.02-.01-.03-.02t0,0c-2.24-1.41-4.3-3.23-6.12-5.44-3.8-4.61-6.28-10.58-6.98-16.81-1.7-15.09,5.43-28.86,12.33-42.18,5.71-11.03,11.57-22.35,12.13-34.28.06-1.38.23-2.75.51-4.1.51-2.49,1.16-3.94,1.68-4.75h0c.5-.8.87-1,.87-1-.35-1.77,1.51-.86,7.9-1.95.94-.16,1.85-.34,2.72-.54l.13-.03.21-.05c-.33.06-3.4.52-8.21.19-.91-.06-1.88-.15-2.91-.28-3.58-.44-7.83-1.33-12.46-3-.63-.26-1.32-.56-2.07-.9C3.19,126.58,2.88,114.63,2.87,97.16l.03-1.1c-.08.01-.16.02-.24.02-.56.05-1.15.06-1.63.15-.61.12-1.04.38-1.04,1.05Z"/>
        </g>
        <path class="cls-2" d="M27.65,35.39c0,2.53,2.3,1.89,3.13,2.42.87.56.77,1.84,1.12,2.81.76,2.1,4.02,3.18,6.61.51-1.14.44-2.49.42-3.49-.27-.95-.66-1.46-1.82-1.59-2.97-.13-1.15.07-2.31.27-3.45-.51.97-1.84,1.35-2.85.95-1.01-.4-1.67-1.49-1.7-2.58-.03-1.09.52-2.15,1.34-2.88.44-.39.96-.7,1.51-.91-.56-.09-1.21,0-1.98.41-2.08,1.07-1.74,3.33-1.89,3.93-.17.69-.48,1.3-.48,2.03Z"/>
        <path class="cls-2" d="M49.33,38.08c.39,7.81,5.98,8.28,7.68,5.82.59-.85.82-2.11,1.81-2.43.94-.3,3,.91,3.65-1.54.01-.06.03-.11.04-.17-.11.09-.23.17-.36.23-.72.36-1.6.31-2.35,0-.75-.3-1.39-.83-1.95-1.41-.2.75-.31,1.46-.7,2.12-.39.66-1,1.24-1.75,1.41-1.13.27-2.27-.41-3.07-1.25-1.3-1.36-2.05-3.22-2.06-5.1,0-1.13.26-2.26.76-3.28-1.51,1.21-1.8,3.47-1.69,5.57Z"/>
        <path class="cls-2" d="M37.65,33.7c.23,1.39,1.06,2.42,1.87,2.29.81-.13,1.28-1.37,1.05-2.76-.23-1.39-1.06-2.42-1.87-2.29-.81.13-1.28,1.37-1.05,2.76Z"/>
        <path class="cls-2" d="M52.99,35.11c.52,1.02,1.41,1.6,2,1.31s.65-1.37.13-2.39c-.52-1.02-1.41-1.6-2-1.31-.59.3-.65,1.37-.13,2.39Z"/>
      </g>
      <g>
        <path class="cls-2" d="M78.48,83.5c-1.58,5.9-3.49,13.03-5.8,21.69-.41,1.54-.83,3.14-1.28,4.79l-.15.58c-1.3,4.89-2.91,10.98-6.86,16.23-4.64,6.17-11.48,9.95-20.94,11.57-1.65.28-3.32.48-4.97.61-1.44.11-2.88.17-4.32.18.28,1.04.52,2.11.7,3.19,1.36,7.93.21,17-3.43,26.6-2.37,6.26-5.5,12.24-8.53,18.02-1.82,3.48-3.71,7.07-5.4,10.67-5.44,11.63-7.51,21.07-6.55,29.71,1.2,10.69,8.12,19.92,16.81,22.45,1.52.44,3.04.67,4.55.74,5.89.26,11.66-2.15,16.3-5.82,2.99-2.35,5.51-5.23,7.33-8.25.04-.06.27-.02.32-.09l-.13-.07h.01l.51.3h0s2.4,1.41,2.4,1.41c-2.07,3.51-4.81,6.66-7.99,9.22-1.81,1.47-3.76,2.73-5.82,3.76-4.43,2.23-8.98,3.24-13.37,2.99h-.02c-.55-.04-1.11-.08-1.65-.16-1.15-.15-2.29-.39-3.39-.71-11.74-3.41-18.15-15.21-19.3-25.39-1.04-9.31,1.14-19.34,6.86-31.57,1.72-3.67,3.62-7.29,5.45-10.8,2.98-5.7,6.07-11.58,8.37-17.64,2.86-7.58,5.51-18.64,2.26-28.93-3.3-.87-6.56-1.95-9.7-3.39-8.73-4.01-14.37-9.42-17.26-16.58-2.47-6.08-2.47-12.37-2.46-17.43v-5.14c-.01-9.15-.02-16.66-.03-22.86-.06-28.97-.07-29.53,1.77-33.43,3.04-6.44,10.11-9.13,15.71-9.5,6.18-.4,12.29,1.41,17.67,3.01l-.99,3.32c-5.35-1.59-10.91-3.25-16.46-2.88-5.81.38-10.83,3.33-12.81,7.51-1.48,3.14-1.51,3.73-1.44,31.95.02,6.16.03,13.57.03,22.61v5.41c0,10.13-.02,22.74,17.71,30.86.03.02.06.03.09.05,6.4,2.91,13.54,3.85,20.47,2.67.04,0,.07-.01.11-.01,19.22-3.3,22.45-15.49,25.04-25.28l.16-.59c.45-1.72.9-3.38,1.33-5,2.29-8.56,4.17-15.63,5.74-21.48,7.3-27.25,7.43-27.84,6.81-31.24-.82-4.55-4.93-8.7-10.44-10.56-5.27-1.77-11.06-1.6-16.65-1.44l-.09-3.46c5.62-.17,11.99-.36,17.85,1.62,5.32,1.8,11.47,6.22,12.75,13.22.77,4.24.62,4.77-6.88,32.76Z"/>
        <g>
          <path class="cls-1" d="M42.87,134.95c19.22-3.3,22.45-15.49,25.04-25.28l.16-.59c2.89-10.86,5.21-19.52,7.07-26.48,7.31-27.25,7.43-27.83,6.81-31.24-.83-4.55-4.93-8.69-10.45-10.55-1.42-.48-2.88-.82-4.36-1.05,2.12.22,4.2.61,6.21,1.29,5.52,1.86,9.62,6,10.45,10.55.62,3.41.5,4-6.81,31.24-1.86,6.96-4.19,15.62-7.07,26.48l-.16.59c-2.59,9.79-5.82,21.98-25.04,25.28-.04,0-.07.01-.1.02-3.77.64-7.61.66-11.36.06,3.15.33,6.35.23,9.51-.3.03,0,.07-.01.1-.02Z"/>
          <path class="cls-1" d="M2.77,39.94c3.03-6.43,10.11-9.12,15.72-9.49,2.35-.15,4.68.01,6.98.37-1.7-.18-3.41-.24-5.13-.13-5.61.37-12.68,3.06-15.72,9.49-1.84,3.91-1.84,4.46-1.77,33.43.02,7.2.04,16.16.04,27.4v.6c0,5.06-.01,11.35,2.45,17.44,2.9,7.16,8.54,12.57,17.27,16.58,1.33.61,2.68,1.16,4.04,1.65-2-.48-3.98-1.01-5.89-1.89-8.72-4-14.37-9.42-17.27-16.58-2.47-6.09-2.46-12.38-2.46-17.44v-.6c0-11.24-.02-20.2-.03-27.4-.07-28.97-.07-29.52,1.77-33.43Z"/>
        </g>
        <path class="cls-2" d="M49.33,38.08c.39,7.81,5.98,8.28,7.68,5.82.59-.85.82-2.11,1.81-2.43.94-.3,3,.91,3.65-1.54.01-.06.03-.11.04-.17.13-.65,0-1.26.02-1.92.01-.62.92-2.71-.82-4.29-2.59-2.36-4.52.62-5.64.22-.65-.24-1.49-2.9-4.14-1.81-.35.14-.65.32-.91.54-1.51,1.21-1.8,3.47-1.69,5.57Z"/>
        <path class="cls-2" d="M27.65,35.39c0,2.53,2.3,1.89,3.13,2.42.87.56.77,1.84,1.12,2.81.76,2.1,4.02,3.18,6.61.51.89-.91,1.7-2.26,2.31-4.16.75-2.35,1.03-5.06-.95-6.57-2.28-1.73-3.77.63-4.46.69-.89.08-1.73-1.81-3.42-2.06-.56-.09-1.21,0-1.98.41-2.08,1.07-1.74,3.33-1.89,3.93-.17.69-.48,1.3-.48,2.03Z"/>
        <path class="cls-1" d="M73.42,106.46c-4.3,16.22-8.32,28.06-26.73,32.31h-.06s-.15.04-.15.04l-.13.03c-.87.2-1.78.38-2.72.54-6.4,1.09-8.25.18-7.9,1.95,4.11,21.23-9.85,40.84-17.27,56.73-11.26,24.02-6.4,40.57,3.4,47.6,0,0,.01,0,.01.01.14.09.27.2.41.28.23.17.48.33.73.48.15.07.28.17.43.25.25.15.52.29.78.43.1.05.2.11.31.16.03.01.06.03.09.04.13.07.26.14.4.2.05.02.11.05.16.07.17.07.33.15.5.22.19.07.38.16.57.23.19.07.39.15.58.22,0,0,0,0,.01,0,.01,0,.03,0,.04.01.33.11.67.23.99.32.02.01.03.01.04.01.05.02.09.03.14.04.05.01.1.03.14.04.02,0,.03.01.04.01.12.04.24.07.36.11h.03c.19.05.38.09.58.14.15.04.3.07.44.09.02.01.04.01.06.01.12.03.23.05.35.07,0,0,0,0,0,0,.33.06.65.11.98.16.4.05.79.09,1.19.12.06.01.13.01.19.01.41.03.81.04,1.22.04.2,0,.4,0,.59-.01.17,0,.34-.01.51-.02.37-.02.74-.04,1.1-.08.12-.01.23-.02.34-.03.11-.01.21-.03.32-.04,1.01-.14,2.02-.35,3.02-.63.16-.05.32-.09.47-.14.06-.02.12-.04.17-.06,1.19-.37,2.36-.85,3.52-1.44.31-.15.59-.31.89-.47.14-.07.27-.16.41-.24.2-.12.39-.23.59-.36.26-.16.52-.32.77-.5.31-.2.6-.41.9-.64.19-.14.39-.28.58-.44.08-.07.17-.14.25-.21.12-.08.22-.18.33-.26.15-.12.31-.25.46-.39.65-.58,1.29-1.19,1.92-1.85.11-.09.2-.2.28-.31.28-.32.57-.63.85-.96.27-.34.55-.67.82-1.02.21-.26.42-.54.61-.82.86-.72,1.73-1.4,2.6-2.07.04-.06.58-.11.62-.17h-.43s.01.01.01.01l.51.3h0s2.4,1.41,2.4,1.41l.9.53c-2.11,3.59-4.91,6.82-8.16,9.44-3.33,2.7-7.14,4.76-11.12,5.94-.22.07-.43.13-.65.19-.43.12-.86.22-1.31.33-.22.04-.43.09-.65.14h-.01c-.22.04-.44.08-.65.12-.44.07-.87.14-1.32.19h-.01c-.22.03-.44.05-.66.07-.22.02-.44.03-.66.05-.15,0-.28.01-.42.02-.17.01-.33.01-.5.02h-.42c-.41.01-.82,0-1.23-.01-.08-.01-.17-.01-.25-.01-.13-.01-.24-.01-.37-.02-.11-.01-.21-.02-.32-.03-.08,0-.18-.01-.26-.02-.11-.01-.2-.02-.31-.03-.2-.01-.4-.04-.6-.06-7.05-.93-12.86-4.84-16.97-10.24-.36-.47-.71-.96-1.04-1.47-.22-.34-.44-.67-.65-1.01-.11-.17-.21-.35-.32-.52-.16-.26-.31-.53-.45-.78-.3-.54-.58-1.08-.84-1.61-.13-.28-.26-.56-.39-.83-1.51-3.32-2.51-6.91-2.91-10.55-3.66-32.41,31.38-57.6,23.29-87.65-.14-.5-.52-.67-1.39-.94-.16-.04-.34-.09-.54-.15-.06-.02-.14-.04-.2-.05-.37-.11-.78-.22-1.26-.37-.11-.03-.22-.07-.33-.11-.25-.07-.52-.17-.8-.26-.15-.04-.28-.09-.44-.15-.12-.04-.24-.08-.37-.13-.08-.03-.17-.06-.26-.09-1.08-.4-2.35-.92-3.87-1.61-1.03-.47-2.01-.96-2.95-1.45-.26-.15-.53-.28-.78-.43h-.01c-.38-.22-.76-.43-1.14-.65-.47-.28-.94-.57-1.39-.86h-.01c-1.8-1.17-3.37-2.39-4.74-3.69-.35-.32-.67-.64-.99-.97-.33-.34-.63-.67-.94-1.01-.3-.34-.58-.67-.85-1.02-.07-.09-.14-.19-.21-.27-.05-.06-.09-.12-.14-.18C.59,118.37-.02,109.11,0,97.29c-.01-.67.43-.94,1.03-1.05.47-.09,1.06-.09,1.62-.15.08-.01.17-.01.24-.02.69-.06,1.2-.12,1.59-.09h.01c1.43.06,1.01,1.02,1.03,5.41-.01,11.15.99,22.96,17.19,29.96,6.22,2.84,13.15,3.73,19.87,2.59,18.54-3.59,21.09-12.51,25.54-29.15.15-.55.47-.75.91-.75.12,0,.23.02.36.04.53.08,1.16.36,1.76.57.53.19,1.09.34,1.53.54.56.26.92.62.74,1.28Z"/>
        <g>
          <path class="cls-1" d="M49.3,135.55c12.14-3.78,16.48-11.43,20.25-24.23.01-.04.03-.08.05-.12h0c.18-.36.6-.5.96-.33.32.16.47.53.36.86-3.81,12.94-8.49,21.21-21.15,25.17-.11.04-.23.06-.35.04-.18-.02-.34-.11-.46-.26-.25-.31-.2-.76.11-1.01.07-.06.15-.1.24-.13Z"/>
          <path class="cls-1" d="M16.25,197.04c1.45-3.1,3.11-6.29,4.87-9.65l.14-.27c2.65-5.07,5.4-10.31,7.67-15.77.15-.37.57-.54.94-.39.37.15.54.57.39.94-2.3,5.52-5.06,10.79-7.72,15.89l-.14.27c-1.75,3.35-3.41,6.52-4.85,9.6-5.33,11.37-7.44,21.71-6.28,30.73.03.22.06.44.09.65.06.39-.21.76-.6.81-.07,0-.13.01-.2,0-.31-.04-.57-.28-.62-.61-.03-.22-.07-.45-.09-.68-1.19-9.29.96-19.89,6.4-31.52Z"/>
        </g>
        <path class="cls-1" d="M21.32,249.91s0,0,0,0c0,0,.02.01.03.02,0,0-.01-.01-.02-.01Z"/>
        <g>
          <path class="cls-1" d="M56.67,236.59h0c-2.16,3.69-4.69,6.59-7.4,8.78-5.33,4.32-11.41,5.89-16.94,5.15-3.92-.51-7.56-2.18-10.46-4.85.14.09.27.19.41.28.23.17.48.33.73.48.14.08.28.18.43.25,1.6.96,3.34,1.68,5.15,2.13.8.21,1.62.37,2.46.47.4.05.79.09,1.19.12.06.01.13.01.19.01.41.03.81.04,1.22.04.2,0,.4,0,.59-.01.17,0,.34-.01.51-.02.37-.02.74-.04,1.1-.08.22-.02.43-.05.65-.07,1.01-.14,2.02-.35,3.02-.63.21-.06.43-.13.64-.2,1.19-.37,2.36-.85,3.52-1.44.3-.15.59-.31.89-.47.14-.07.27-.16.41-.24.2-.11.4-.23.59-.36.26-.16.52-.32.77-.5.31-.2.6-.41.9-.64.19-.14.39-.28.58-.44.08-.06.17-.13.26-.2.11-.08.21-.17.32-.27.15-.12.31-.25.46-.39.65-.57,1.31-1.19,1.92-1.85.11-.09.2-.2.28-.31.3-.31.58-.63.85-.96.28-.34.56-.67.82-1.02.21-.26.42-.54.61-.82.86-.72,1.73-1.4,2.6-2.07.04-.06.58-.11.62-.17h-.43s.01.01.01.01l.51.3Z"/>
          <path class="cls-1" d="M0,97.29c-.01,11.81.59,21.08,6.17,28.5.05.06.09.12.14.18.07.09.14.18.21.27,2.2,2.77,5.11,5.28,8.93,7.56.37.22.75.44,1.14.65,0,0,0,0,0,0,.26.14.52.28.78.42.93.5,1.92.98,2.95,1.46,1.51.69,2.79,1.21,3.87,1.61.09.03.18.06.27.1.12.05.25.09.37.13.15.05.3.1.44.15.29.1.55.18.8.26.11.03.22.07.32.1.49.15.9.27,1.27.37.07.02.14.04.2.06.2.06.38.11.54.15.87.26,1.25.44,1.38.94,8.09,30.04-26.94,55.23-23.29,87.64.41,3.64,1.4,7.23,2.92,10.55.13.28.25.55.39.83.26.55.55,1.08.84,1.61.15.26.3.52.45.78.1.17.21.34.31.52.21.34.43.68.65,1.01.34.5.69.99,1.05,1.47,4.11,5.4,9.91,9.32,16.96,10.24.2.03.4.05.6.07.1.01.21.02.31.03.09.01.18.02.27.02.11.01.21.02.31.02.13.01.25.02.38.02.08,0,.16,0,.25,0,.41.02.82.02,1.23.02.14,0,.28,0,.42,0,.17,0,.33-.01.49-.02.14,0,.28-.02.42-.02.22-.01.44-.03.67-.05.22-.02.44-.04.67-.07,0,0,.01,0,.01,0,.44-.05.88-.11,1.31-.19.22-.04.43-.08.65-.12,0,0,0,0,.01,0,.22-.04.43-.09.65-.13.44-.1.88-.21,1.31-.32.22-.06.44-.12.65-.19-3.11.65-6.11.53-8.79.06-5.64-1-9.84-3.6-10.5-4.02-.02-.01-.04-.03-.06-.04-.01,0-.02-.01-.03-.02t0,0c-2.24-1.41-4.3-3.23-6.12-5.44-3.8-4.61-6.28-10.58-6.98-16.81-1.7-15.09,5.43-28.86,12.33-42.18,5.71-11.03,11.57-22.35,12.13-34.28.06-1.38.23-2.75.51-4.1.51-2.49,1.16-3.94,1.68-4.75h0c.5-.8.87-1,.87-1-.35-1.77,1.51-.86,7.9-1.95.94-.16,1.85-.34,2.72-.54l.13-.03.21-.05c-.33.06-3.4.52-8.21.19-.91-.06-1.88-.15-2.91-.28-3.58-.44-7.83-1.33-12.46-3-.63-.26-1.32-.56-2.07-.9C3.19,126.58,2.88,114.63,2.87,97.16l.03-1.1c-.08.01-.16.02-.24.02-.56.05-1.15.06-1.63.15-.61.12-1.04.38-1.04,1.05Z"/>
        </g>
        <path class="cls-2" d="M27.65,35.39c0,2.53,2.3,1.89,3.13,2.42.87.56.77,1.84,1.12,2.81.76,2.1,4.02,3.18,6.61.51-1.14.44-2.49.42-3.49-.27-.95-.66-1.46-1.82-1.59-2.97-.13-1.15.07-2.31.27-3.45-.51.97-1.84,1.35-2.85.95-1.01-.4-1.67-1.49-1.7-2.58-.03-1.09.52-2.15,1.34-2.88.44-.39.96-.7,1.51-.91-.56-.09-1.21,0-1.98.41-2.08,1.07-1.74,3.33-1.89,3.93-.17.69-.48,1.3-.48,2.03Z"/>
        <path class="cls-2" d="M49.33,38.08c.39,7.81,5.98,8.28,7.68,5.82.59-.85.82-2.11,1.81-2.43.94-.3,3,.91,3.65-1.54.01-.06.03-.11.04-.17-.11.09-.23.17-.36.23-.72.36-1.6.31-2.35,0-.75-.3-1.39-.83-1.95-1.41-.2.75-.31,1.46-.7,2.12-.39.66-1,1.24-1.75,1.41-1.13.27-2.27-.41-3.07-1.25-1.3-1.36-2.05-3.22-2.06-5.1,0-1.13.26-2.26.76-3.28-1.51,1.21-1.8,3.47-1.69,5.57Z"/>
        <path class="cls-2" d="M37.65,33.7c.23,1.39,1.06,2.42,1.87,2.29.81-.13,1.28-1.37,1.05-2.76-.23-1.39-1.06-2.42-1.87-2.29-.81.13-1.28,1.37-1.05,2.76Z"/>
        <path class="cls-2" d="M52.99,35.11c.52,1.02,1.41,1.6,2,1.31s.65-1.37.13-2.39c-.52-1.02-1.41-1.6-2-1.31-.59.3-.65,1.37-.13,2.39Z"/>
      </g>
      <path class="cls-1" d="M628.3,218.74c-75.95,35.79-161.75,31.77-244.73,27.87-15.6-.73-31.72-1.49-47.41-1.95-21.33-.63-44.12.95-66.16,2.48-19.22,1.34-38.71,2.69-57.96,2.69-29.91,0-59.22-3.27-86.08-14.95-27.98-12.18-52.39-8.05-74.17,13.1h0l-.73-.75-1.81-1.85-.63-.66-.55-.56h-.01s.01,0,.01,0c1.89-1.83,3.33-4.03,5.27-5.63.86-.72,1.73-1.4,2.6-2.07l.19-.16h.01c21.47-16.36,45.75-18.79,72.34-7.22,42.7,18.57,92.71,15.1,141.07,11.75,22.19-1.54,45.13-3.14,66.78-2.5,15.74.47,31.89,1.23,47.51,1.96,82.21,3.86,167.21,7.85,241.75-27.28l2.69,5.72Z"/>
      <g>
        <path class="cls-1" d="M612.66,218.66c15.2-5.23,24.68-12.96,30.46-19.47.21-.23.41-.46.61-.69,4.06-4.7,5.96-8.25,6.17-8.32.73-1.17,1.84-.07,4.37,1.52.17.11.31.26.39.44.09.2.12.42.08.64,0,.03-.01.05-.02.08-.02.1-.06.19-.12.28-.76,1.22-1.54,2.39-2.32,3.51-.13.19-.26.38-.39.56-.39.55-.78,1.09-1.17,1.62-.05.07-.1.14-.15.21-.15.2-.29.39-.44.58-.48.62-.96,1.23-1.44,1.83-.13.16-.27.33-.41.5h0s0,0,0,0c-.43.51-.85,1.02-1.28,1.51-.14.16-.29.33-.43.49-.12.14-.25.28-.38.42-.59.66-1.19,1.3-1.79,1.92-.14.15-.29.3-.44.45-.19.19-.38.38-.57.58-.54.54-1.09,1.06-1.64,1.57-.15.14-.3.28-.45.41-.45.41-.9.8-1.35,1.19-.15.13-.3.26-.45.38-.15.13-.3.25-.45.38-.31.26-.62.51-.93.76-.28.22-.55.44-.84.65-.63.49-1.26.95-1.9,1.41-.13.09-.25.18-.38.27-.8.56-1.61,1.1-2.42,1.61-.12.07-.23.15-.35.22-1.32.82-2.56,1.89-3.9,2.6-.2.11-.48-.1-.68,0-.58.3-1.16.59-1.73.86-.16.08-.32.15-.48.23-.09.04-.18.09-.27.13-.16.08-.33.15-.49.23-.56.25-1.11.5-1.67.73-.16.07-.31.13-.47.2-.17.07-.35.15-.53.22-.15.06-.3.12-.45.18-.17.07-.34.13-.51.2-.2.08-.4.16-.61.23-.2.08-.41.15-.61.23-.18.06-.35.13-.53.19"/>
        <g>
          <circle class="cls-2" cx="654.12" cy="189.56" r="13.68" transform="translate(31.61 465.78) rotate(-40.09)"/>
          <circle class="cls-2" cx="654.12" cy="189.56" r="12.74" transform="translate(31.66 465.89) rotate(-40.1)"/>
          <g class="cls-3">
            <path class="cls-1" d="M658.3,201.6c-6.65,2.31-13.91-1.21-16.22-7.86-1.48-4.26-.57-8.77,2.03-12.07-.55,2.29-.47,4.75.36,7.14,2.31,6.65,9.57,10.17,16.22,7.86,2.39-.83,4.38-2.3,5.83-4.16-.98,4.08-3.95,7.6-8.22,9.08Z"/>
          </g>
          <circle class="cls-2" cx="653.58" cy="190.68" r="6.38"/>
          <circle class="cls-2" cx="654.12" cy="189.56" r="6.38" transform="translate(-22.81 114.92) rotate(-9.87)"/>
          <path class="cls-2" d="M661.07,187.54c-.03-.12-.07-.23-.11-.35-1.31-3.77-5.44-5.77-9.21-4.46-.07.02-.14.05-.2.08-.73-1.15-.96-2.31-.5-3.24.97-2.01,4.69-2.21,8.31-.46,3.61,1.75,5.76,4.8,4.79,6.81-.48.98-1.61,1.53-3.07,1.63Z"/>
          <path class="cls-2" d="M654.77,188.25c-1.68-.82-2.66-2.29-2.17-3.3.49-1,2.25-1.16,3.93-.34s2.66,2.29,2.17,3.3c-.49,1-2.25,1.16-3.93.34Z"/>
        </g>
      </g>
    </g>
  </g>
</svg>